<svg xmlns="http://www.w3.org/2000/svg" version="1.1" xmlns:xlink="http://www.w3.org/1999/xlink" xmlns:svgjs="http://svgjs.dev/svgjs" viewBox="0 0 800 800"><g fill="hsl(0, 0%, 78%)" transform="matrix(0.7,0,0,0.7,119.10000000000002,121.35000000000002)"><circle r="0.5" cx="405" cy="400" opacity="1.00"></circle><circle r="0.5" cx="405" cy="403" opacity="1.00"></circle><circle r="0.5" cx="403" cy="405" opacity="1.00"></circle><circle r="0.5" cx="400" cy="406" opacity="0.99"></circle><circle r="0.5" cx="397" cy="406" opacity="0.99"></circle><circle r="0.5" cx="394" cy="404" opacity="0.99"></circle><circle r="0.5" cx="392" cy="401" opacity="0.99"></circle><circle r="0.5" cx="392" cy="397" opacity="0.99"></circle><circle r="0.5" cx="394" cy="393" opacity="0.99"></circle><circle r="0.5" cx="398" cy="391" opacity="0.98"></circle><circle r="0.5" cx="403" cy="390" opacity="0.98"></circle><circle r="0.5" cx="407" cy="393" opacity="0.98"></circle><circle r="0.5" cx="411" cy="397" opacity="0.98"></circle><circle r="0.5" cx="411" cy="402" opacity="0.98"></circle><circle r="0.5" cx="409" cy="408" opacity="0.98"></circle><circle r="0.5" cx="404" cy="412" opacity="0.97"></circle><circle r="0.5" cx="398" cy="413" opacity="0.97"></circle><circle r="0.5" cx="392" cy="411" opacity="0.97"></circle><circle r="0.5" cx="387" cy="406" opacity="0.97"></circle><circle r="0.5" cx="386" cy="399" opacity="0.97"></circle><circle r="0.5" cx="387" cy="392" opacity="0.96"></circle><circle r="0.5" cx="393" cy="386" opacity="0.96"></circle><circle r="0.5" cx="400" cy="384" opacity="0.96"></circle><circle r="0.5" cx="408" cy="386" opacity="0.96"></circle><circle r="0.5" cx="414" cy="391" opacity="0.96"></circle><circle r="0.5" cx="417" cy="399" opacity="0.96"></circle><circle r="0.5" cx="416" cy="408" opacity="0.95"></circle><circle r="0.5" cx="411" cy="415" opacity="0.95"></circle><circle r="0.5" cx="403" cy="419" opacity="0.95"></circle><circle r="0.5" cx="393" cy="418" opacity="0.95"></circle><circle r="0.5" cx="385" cy="413" opacity="0.95"></circle><circle r="0.5" cx="380" cy="404" opacity="0.95"></circle><circle r="0.5" cx="380" cy="394" opacity="0.94"></circle><circle r="0.5" cx="385" cy="385" opacity="0.94"></circle><circle r="0.5" cx="394" cy="379" opacity="0.94"></circle><circle r="0.5" cx="405" cy="378" opacity="0.94"></circle><circle r="0.5" cx="415" cy="383" opacity="0.94"></circle><circle r="1" cx="422" cy="392" opacity="0.93"></circle><circle r="1" cx="424" cy="404" opacity="0.93"></circle><circle r="1" cx="419" cy="415" opacity="0.93"></circle><circle r="1" cx="410" cy="423" opacity="0.93"></circle><circle r="1" cx="398" cy="425" opacity="0.93"></circle><circle r="1" cx="386" cy="422" opacity="0.93"></circle><circle r="1" cx="377" cy="412" opacity="0.92"></circle><circle r="1" cx="373" cy="400" opacity="0.92"></circle><circle r="1" cx="376" cy="387" opacity="0.92"></circle><circle r="1" cx="385" cy="376" opacity="0.92"></circle><circle r="1" cx="398" cy="372" opacity="0.92"></circle><circle r="1" cx="412" cy="374" opacity="0.92"></circle><circle r="1" cx="424" cy="383" opacity="0.91"></circle><circle r="1" cx="430" cy="396" opacity="0.91"></circle><circle r="1" cx="428" cy="411" opacity="0.91"></circle><circle r="1" cx="420" cy="424" opacity="0.91"></circle><circle r="1" cx="406" cy="431" opacity="0.91"></circle><circle r="1" cx="391" cy="431" opacity="0.90"></circle><circle r="1" cx="377" cy="423" opacity="0.90"></circle><circle r="1" cx="368" cy="409" opacity="0.90"></circle><circle r="1" cx="367" cy="393" opacity="0.90"></circle><circle r="1" cx="375" cy="377" opacity="0.90"></circle><circle r="1" cx="388" cy="368" opacity="0.90"></circle><circle r="1" cx="405" cy="365" opacity="0.89"></circle><circle r="1" cx="422" cy="372" opacity="0.89"></circle><circle r="1" cx="433" cy="385" opacity="0.89"></circle><circle r="1" cx="436" cy="403" opacity="0.89"></circle><circle r="1" cx="431" cy="420" opacity="0.89"></circle><circle r="1" cx="418" cy="433" opacity="0.89"></circle><circle r="1" cx="399" cy="438" opacity="0.88"></circle><circle r="1" cx="381" cy="434" opacity="0.88"></circle><circle r="1" cx="367" cy="421" opacity="0.88"></circle><circle r="1" cx="361" cy="402" opacity="0.88"></circle><circle r="1" cx="364" cy="383" opacity="0.88"></circle><circle r="1" cx="376" cy="367" opacity="0.88"></circle><circle r="1" cx="395" cy="359" opacity="0.87"></circle><circle r="1" cx="415" cy="361" opacity="0.87"></circle><circle r="1.5" cx="432" cy="373" opacity="0.87"></circle><circle r="1.5" cx="442" cy="392" opacity="0.87"></circle><circle r="1.5" cx="441" cy="413" opacity="0.87"></circle><circle r="1.5" cx="430" cy="431" opacity="0.86"></circle><circle r="1.5" cx="412" cy="442" opacity="0.86"></circle><circle r="1.5" cx="390" cy="443" opacity="0.86"></circle><circle r="1.5" cx="370" cy="434" opacity="0.86"></circle><circle r="1.5" cx="357" cy="415" opacity="0.86"></circle><circle r="1.5" cx="355" cy="393" opacity="0.86"></circle><circle r="1.5" cx="363" cy="372" opacity="0.85"></circle><circle r="1.5" cx="381" cy="357" opacity="0.85"></circle><circle r="1.5" cx="404" cy="353" opacity="0.85"></circle><circle r="1.5" cx="427" cy="360" opacity="0.85"></circle><circle r="1.5" cx="443" cy="378" opacity="0.85"></circle><circle r="1.5" cx="449" cy="401" opacity="0.85"></circle><circle r="1.5" cx="443" cy="424" opacity="0.84"></circle><circle r="1.5" cx="426" cy="443" opacity="0.84"></circle><circle r="1.5" cx="403" cy="450" opacity="0.84"></circle><circle r="1.5" cx="378" cy="446" opacity="0.84"></circle><circle r="1.5" cx="358" cy="430" opacity="0.84"></circle><circle r="1.5" cx="348" cy="406" opacity="0.83"></circle><circle r="1.5" cx="351" cy="381" opacity="0.83"></circle><circle r="1.5" cx="366" cy="359" opacity="0.83"></circle><circle r="1.5" cx="390" cy="348" opacity="0.83"></circle><circle r="1.5" cx="416" cy="348" opacity="0.83"></circle><circle r="1.5" cx="439" cy="362" opacity="0.83"></circle><circle r="1.5" cx="453" cy="386" opacity="0.82"></circle><circle r="1.5" cx="454" cy="413" opacity="0.82"></circle><circle r="1.5" cx="442" cy="438" opacity="0.82"></circle><circle r="1.5" cx="419" cy="453" opacity="0.82"></circle><circle r="1.5" cx="391" cy="456" opacity="0.82"></circle><circle r="1.5" cx="365" cy="445" opacity="0.82"></circle><circle r="1.5" cx="347" cy="423" opacity="0.81"></circle><circle r="1.5" cx="342" cy="395" opacity="0.81"></circle><circle r="1.5" cx="351" cy="367" opacity="0.81"></circle><circle r="1.5" cx="373" cy="347" opacity="0.81"></circle><circle r="2" cx="401" cy="340" opacity="0.81"></circle><circle r="2" cx="430" cy="348" opacity="0.80"></circle><circle r="2" cx="452" cy="368" opacity="0.80"></circle><circle r="2" cx="461" cy="397" opacity="0.80"></circle><circle r="2" cx="456" cy="427" opacity="0.80"></circle><circle r="2" cx="436" cy="451" opacity="0.80"></circle><circle r="2" cx="408" cy="463" opacity="0.80"></circle><circle r="2" cx="376" cy="459" opacity="0.79"></circle><circle r="2" cx="351" cy="441" opacity="0.79"></circle><circle r="2" cx="337" cy="412" opacity="0.79"></circle><circle r="2" cx="338" cy="380" opacity="0.79"></circle><circle r="2" cx="355" cy="353" opacity="0.79"></circle><circle r="2" cx="383" cy="336" opacity="0.79"></circle><circle r="2" cx="416" cy="335" opacity="0.78"></circle><circle r="2" cx="445" cy="350" opacity="0.78"></circle><circle r="2" cx="464" cy="378" opacity="0.78"></circle><circle r="2" cx="467" cy="411" opacity="0.78"></circle><circle r="2" cx="454" cy="442" opacity="0.78"></circle><circle r="2" cx="427" cy="463" opacity="0.77"></circle><circle r="2" cx="393" cy="469" opacity="0.77"></circle><circle r="2" cx="361" cy="458" opacity="0.77"></circle><circle r="2" cx="337" cy="432" opacity="0.77"></circle><circle r="2" cx="329" cy="398" opacity="0.77"></circle><circle r="2" cx="338" cy="364" opacity="0.77"></circle><circle r="2" cx="363" cy="338" opacity="0.76"></circle><circle r="2" cx="397" cy="328" opacity="0.76"></circle><circle r="2" cx="432" cy="334" opacity="0.76"></circle><circle r="2" cx="460" cy="358" opacity="0.76"></circle><circle r="2" cx="474" cy="392" opacity="0.76"></circle><circle r="2" cx="469" cy="428" opacity="0.76"></circle><circle r="2" cx="447" cy="458" opacity="0.75"></circle><circle r="2" cx="414" cy="474" opacity="0.75"></circle><circle r="2" cx="377" cy="472" opacity="0.75"></circle><circle r="2" cx="344" cy="453" opacity="0.75"></circle><circle r="2" cx="326" cy="420" opacity="0.75"></circle><circle r="2" cx="325" cy="381" opacity="0.74"></circle><circle r="2" cx="343" cy="347" opacity="0.74"></circle><circle r="2.5" cx="375" cy="326" opacity="0.74"></circle><circle r="2.5" cx="414" cy="322" opacity="0.74"></circle><circle r="2.5" cx="450" cy="338" opacity="0.74"></circle><circle r="2.5" cx="474" cy="369" opacity="0.74"></circle><circle r="2.5" cx="480" cy="408" opacity="0.73"></circle><circle r="2.5" cx="467" cy="446" opacity="0.73"></circle><circle r="2.5" cx="437" cy="473" opacity="0.73"></circle><circle r="2.5" cx="397" cy="482" opacity="0.73"></circle><circle r="2.5" cx="358" cy="471" opacity="0.73"></circle><circle r="2.5" cx="329" cy="443" opacity="0.73"></circle><circle r="2.5" cx="317" cy="403" opacity="0.72"></circle><circle r="2.5" cx="325" cy="363" opacity="0.72"></circle><circle r="2.5" cx="352" cy="331" opacity="0.72"></circle><circle r="2.5" cx="391" cy="316" opacity="0.72"></circle><circle r="2.5" cx="432" cy="321" opacity="0.72"></circle><circle r="2.5" cx="467" cy="346" opacity="0.71"></circle><circle r="2.5" cx="485" cy="384" opacity="0.71"></circle><circle r="2.5" cx="483" cy="427" opacity="0.71"></circle><circle r="2.5" cx="460" cy="464" opacity="0.71"></circle><circle r="2.5" cx="422" cy="485" opacity="0.71"></circle><circle r="2.5" cx="378" cy="486" opacity="0.71"></circle><circle r="2.5" cx="339" cy="465" opacity="0.70"></circle><circle r="2.5" cx="315" cy="428" opacity="0.70"></circle><circle r="2.5" cx="311" cy="384" opacity="0.70"></circle><circle r="2.5" cx="329" cy="343" opacity="0.70"></circle><circle r="2.5" cx="365" cy="316" opacity="0.70"></circle><circle r="2.5" cx="410" cy="309" opacity="0.70"></circle><circle r="2.5" cx="452" cy="324" opacity="0.69"></circle><circle r="2.5" cx="483" cy="359" opacity="0.69"></circle><circle r="2.5" cx="493" cy="403" opacity="0.69"></circle><circle r="2.5" cx="480" cy="448" opacity="0.69"></circle><circle r="2.5" cx="448" cy="481" opacity="0.69"></circle><circle r="2.5" cx="403" cy="494" opacity="0.69"></circle><circle r="2.5" cx="357" cy="485" opacity="0.68"></circle><circle r="2.5" cx="322" cy="454" opacity="0.68"></circle><circle r="2.5" cx="305" cy="410" opacity="0.68"></circle><circle r="3" cx="311" cy="363" opacity="0.68"></circle><circle r="3" cx="339" cy="324" opacity="0.68"></circle><circle r="3" cx="383" cy="304" opacity="0.67"></circle><circle r="3" cx="431" cy="307" opacity="0.67"></circle><circle r="3" cx="472" cy="333" opacity="0.67"></circle><circle r="3" cx="496" cy="376" opacity="0.67"></circle><circle r="3" cx="496" cy="425" opacity="0.67"></circle><circle r="3" cx="473" cy="468" opacity="0.67"></circle><circle r="3" cx="431" cy="495" opacity="0.66"></circle><circle r="3" cx="382" cy="499" opacity="0.66"></circle><circle r="3" cx="336" cy="479" opacity="0.66"></circle><circle r="3" cx="306" cy="439" opacity="0.66"></circle><circle r="3" cx="298" cy="389" opacity="0.66"></circle><circle r="3" cx="316" cy="341" opacity="0.66"></circle><circle r="3" cx="354" cy="307" opacity="0.65"></circle><circle r="3" cx="404" cy="296" opacity="0.65"></circle><circle r="3" cx="454" cy="310" opacity="0.65"></circle><circle r="3" cx="491" cy="347" opacity="0.65"></circle><circle r="3" cx="505" cy="397" opacity="0.65"></circle><circle r="3" cx="495" cy="448" opacity="0.64"></circle><circle r="3" cx="460" cy="488" opacity="0.64"></circle><circle r="3" cx="411" cy="506" opacity="0.64"></circle><circle r="3" cx="358" cy="499" opacity="0.64"></circle><circle r="3" cx="316" cy="467" opacity="0.64"></circle><circle r="3" cx="293" cy="419" opacity="0.64"></circle><circle r="3" cx="297" cy="365" opacity="0.63"></circle><circle r="3" cx="326" cy="319" opacity="0.63"></circle><circle r="3" cx="373" cy="293" opacity="0.63"></circle><circle r="3" cx="428" cy="293" opacity="0.63"></circle><circle r="3" cx="476" cy="319" opacity="0.63"></circle><circle r="3" cx="506" cy="366" opacity="0.63"></circle><circle r="3" cx="510" cy="421" opacity="0.62"></circle><circle r="3" cx="487" cy="471" opacity="0.62"></circle><circle r="3" cx="442" cy="505" opacity="0.62"></circle><circle r="3" cx="387" cy="513" opacity="0.62"></circle><circle r="3" cx="334" cy="493" opacity="0.62"></circle><circle r="3" cx="297" cy="450" opacity="0.61"></circle><circle r="3.5" cx="285" cy="395" opacity="0.61"></circle><circle r="3.5" cx="301" cy="340" opacity="0.61"></circle><circle r="3.5" cx="342" cy="300" opacity="0.61"></circle><circle r="3.5" cx="397" cy="284" opacity="0.61"></circle><circle r="3.5" cx="453" cy="296" opacity="0.61"></circle><circle r="3.5" cx="497" cy="334" opacity="0.60"></circle><circle r="3.5" cx="517" cy="389" opacity="0.60"></circle><circle r="3.5" cx="509" cy="446" opacity="0.60"></circle><circle r="3.5" cx="474" cy="493" opacity="0.60"></circle><circle r="3.5" cx="420" cy="518" opacity="0.60"></circle><circle r="3.5" cx="361" cy="513" opacity="0.60"></circle><circle r="3.5" cx="311" cy="481" opacity="0.59"></circle><circle r="3.5" cx="282" cy="429" opacity="0.59"></circle><circle r="3.5" cx="283" cy="369" opacity="0.59"></circle><circle r="3.5" cx="312" cy="316" opacity="0.59"></circle><circle r="3.5" cx="363" cy="283" opacity="0.59"></circle><circle r="3.5" cx="423" cy="279" opacity="0.58"></circle><circle r="3.5" cx="479" cy="305" opacity="0.58"></circle><circle r="3.5" cx="515" cy="354" opacity="0.58"></circle><circle r="3.5" cx="524" cy="415" opacity="0.58"></circle><circle r="3.5" cx="502" cy="473" opacity="0.58"></circle><circle r="3.5" cx="455" cy="513" opacity="0.58"></circle><circle r="3.5" cx="394" cy="526" opacity="0.57"></circle><circle r="3.5" cx="334" cy="508" opacity="0.57"></circle><circle r="3.5" cx="290" cy="463" opacity="0.57"></circle><circle r="3.5" cx="273" cy="403" opacity="0.57"></circle><circle r="3.5" cx="286" cy="341" opacity="0.57"></circle><circle r="3.5" cx="328" cy="293" opacity="0.57"></circle><circle r="3.5" cx="388" cy="272" opacity="0.56"></circle><circle r="3.5" cx="451" cy="281" opacity="0.56"></circle><circle r="3.5" cx="502" cy="320" opacity="0.56"></circle><circle r="3.5" cx="529" cy="379" opacity="0.56"></circle><circle r="3.5" cx="524" cy="443" opacity="0.56"></circle><circle r="3.5" cx="488" cy="498" opacity="0.55"></circle><circle r="3.5" cx="431" cy="528" opacity="0.55"></circle><circle r="3.5" cx="365" cy="528" opacity="0.55"></circle><circle r="4" cx="308" cy="496" opacity="0.55"></circle><circle r="4" cx="273" cy="440" opacity="0.55"></circle><circle r="4" cx="269" cy="374" opacity="0.55"></circle><circle r="4" cx="297" cy="314" opacity="0.54"></circle><circle r="4" cx="350" cy="274" opacity="0.54"></circle><circle r="4" cx="417" cy="266" opacity="0.54"></circle><circle r="4" cx="479" cy="290" opacity="0.54"></circle><circle r="4" cx="523" cy="341" opacity="0.54"></circle><circle r="4" cx="537" cy="407" opacity="0.54"></circle><circle r="4" cx="517" cy="472" opacity="0.53"></circle><circle r="4" cx="468" cy="520" opacity="0.53"></circle><circle r="4" cx="402" cy="538" opacity="0.53"></circle><circle r="4" cx="336" cy="523" opacity="0.53"></circle><circle r="4" cx="284" cy="477" opacity="0.53"></circle><circle r="4" cx="261" cy="412" opacity="0.52"></circle><circle r="4" cx="271" cy="344" opacity="0.52"></circle><circle r="4" cx="314" cy="289" opacity="0.52"></circle><circle r="4" cx="378" cy="260" opacity="0.52"></circle><circle r="4" cx="447" cy="266" opacity="0.52"></circle><circle r="4" cx="506" cy="305" opacity="0.52"></circle><circle r="4" cx="539" cy="367" opacity="0.51"></circle><circle r="4" cx="538" cy="438" opacity="0.51"></circle><circle r="4" cx="503" cy="500" opacity="0.51"></circle><circle r="4" cx="443" cy="538" opacity="0.51"></circle><circle r="4" cx="371" cy="542" opacity="0.51"></circle><circle r="4" cx="306" cy="511" opacity="0.51"></circle><circle r="4" cx="264" cy="453" opacity="0.50"></circle><circle r="4" cx="255" cy="381" opacity="0.50"></circle><circle r="4" cx="281" cy="314" opacity="0.50"></circle><circle r="4" cx="337" cy="267" opacity="0.50"></circle><circle r="4" cx="409" cy="252" opacity="0.50"></circle><circle r="4" cx="479" cy="274" opacity="0.50"></circle><circle r="4" cx="530" cy="327" opacity="0.49"></circle><circle r="4" cx="549" cy="398" opacity="0.49"></circle><circle r="4" cx="533" cy="470" opacity="0.49"></circle><circle r="4" cx="483" cy="526" opacity="0.49"></circle><circle r="4" cx="413" cy="550" opacity="0.49"></circle><circle r="4.5" cx="339" cy="539" opacity="0.48"></circle><circle r="4.5" cx="279" cy="493" opacity="0.48"></circle><circle r="4.5" cx="249" cy="424" opacity="0.48"></circle><circle r="4.5" cx="256" cy="348" opacity="0.48"></circle><circle r="4.5" cx="298" cy="285" opacity="0.48"></circle><circle r="4.5" cx="366" cy="250" opacity="0.48"></circle><circle r="4.5" cx="442" cy="251" opacity="0.47"></circle><circle r="4.5" cx="508" cy="289" opacity="0.47"></circle><circle r="4.5" cx="549" cy="355" opacity="0.47"></circle><circle r="4.5" cx="553" cy="432" opacity="0.47"></circle><circle r="4.5" cx="519" cy="501" opacity="0.47"></circle><circle r="4.5" cx="456" cy="547" opacity="0.47"></circle><circle r="4.5" cx="379" cy="556" opacity="0.46"></circle><circle r="4.5" cx="307" cy="527" opacity="0.46"></circle><circle r="4.5" cx="256" cy="467" opacity="0.46"></circle><circle r="4.5" cx="241" cy="390" opacity="0.46"></circle><circle r="4.5" cx="265" cy="315" opacity="0.46"></circle><circle r="4.5" cx="322" cy="260" opacity="0.45"></circle><circle r="4.5" cx="399" cy="240" opacity="0.45"></circle><circle r="4.5" cx="476" cy="258" opacity="0.45"></circle><circle r="4.5" cx="535" cy="312" opacity="0.45"></circle><circle r="4.5" cx="561" cy="387" opacity="0.45"></circle><circle r="4.5" cx="548" cy="466" opacity="0.45"></circle><circle r="4.5" cx="499" cy="530" opacity="0.44"></circle><circle r="4.5" cx="425" cy="562" opacity="0.44"></circle><circle r="4.5" cx="344" cy="554" opacity="0.44"></circle><circle r="4.5" cx="276" cy="509" opacity="0.44"></circle><circle r="4.5" cx="239" cy="436" opacity="0.44"></circle><circle r="4.5" cx="241" cy="354" opacity="0.44"></circle><circle r="4.5" cx="282" cy="283" opacity="0.43"></circle><circle r="4.5" cx="352" cy="241" opacity="0.43"></circle><circle r="4.5" cx="434" cy="237" opacity="0.43"></circle><circle r="4.5" cx="509" cy="273" opacity="0.43"></circle><circle r="4.5" cx="557" cy="340" opacity="0.43"></circle><circle r="4.5" cx="567" cy="423" opacity="0.42"></circle><circle r="4.5" cx="536" cy="501" opacity="0.42"></circle><circle r="5" cx="471" cy="554" opacity="0.42"></circle><circle r="5" cx="389" cy="570" opacity="0.42"></circle><circle r="5" cx="309" cy="544" opacity="0.42"></circle><circle r="5" cx="250" cy="483" opacity="0.42"></circle><circle r="5" cx="229" cy="401" opacity="0.41"></circle><circle r="5" cx="249" cy="318" opacity="0.41"></circle><circle r="5" cx="306" cy="255" opacity="0.41"></circle><circle r="5" cx="387" cy="227" opacity="0.41"></circle><circle r="5" cx="472" cy="242" opacity="0.41"></circle><circle r="5" cx="539" cy="295" opacity="0.41"></circle><circle r="5" cx="573" cy="375" opacity="0.40"></circle><circle r="5" cx="564" cy="461" opacity="0.40"></circle><circle r="5" cx="515" cy="532" opacity="0.40"></circle><circle r="5" cx="438" cy="572" opacity="0.40"></circle><circle r="5" cx="351" cy="569" opacity="0.40"></circle><circle r="5" cx="275" cy="525" opacity="0.39"></circle><circle r="5" cx="230" cy="450" opacity="0.39"></circle><circle r="5" cx="226" cy="362" opacity="0.39"></circle><circle r="5" cx="265" cy="283" opacity="0.39"></circle><circle r="5" cx="337" cy="232" opacity="0.39"></circle><circle r="5" cx="425" cy="222" opacity="0.39"></circle><circle r="5" cx="508" cy="256" opacity="0.38"></circle><circle r="5" cx="564" cy="325" opacity="0.38"></circle><circle r="5" cx="581" cy="413" opacity="0.38"></circle><circle r="5" cx="553" cy="498" opacity="0.38"></circle><circle r="5" cx="487" cy="560" opacity="0.38"></circle><circle r="5" cx="400" cy="582" opacity="0.38"></circle><circle r="5" cx="312" cy="561" opacity="0.37"></circle><circle r="5" cx="246" cy="499" opacity="0.37"></circle><circle r="5" cx="216" cy="413" opacity="0.37"></circle><circle r="5" cx="232" cy="323" opacity="0.37"></circle><circle r="5" cx="289" cy="252" opacity="0.37"></circle><circle r="5" cx="374" cy="216" opacity="0.36"></circle><circle r="5" cx="465" cy="226" opacity="0.36"></circle><circle r="5" cx="541" cy="278" opacity="0.36"></circle><circle r="5" cx="583" cy="361" opacity="0.36"></circle><circle r="5" cx="580" cy="453" opacity="0.36"></circle><circle r="5.5" cx="533" cy="533" opacity="0.36"></circle><circle r="5.5" cx="453" cy="581" opacity="0.35"></circle><circle r="5.5" cx="359" cy="585" opacity="0.35"></circle><circle r="5.5" cx="275" cy="543" opacity="0.35"></circle><circle r="5.5" cx="222" cy="466" opacity="0.35"></circle><circle r="5.5" cx="212" cy="372" opacity="0.35"></circle><circle r="5.5" cx="247" cy="285" opacity="0.35"></circle><circle r="5.5" cx="321" cy="226" opacity="0.34"></circle><circle r="5.5" cx="414" cy="209" opacity="0.34"></circle><circle r="5.5" cx="505" cy="238" opacity="0.34"></circle><circle r="5.5" cx="570" cy="308" opacity="0.34"></circle><circle r="5.5" cx="593" cy="401" opacity="0.34"></circle><circle r="5.5" cx="570" cy="494" opacity="0.33"></circle><circle r="5.5" cx="504" cy="564" opacity="0.33"></circle><circle r="5.5" cx="413" cy="595" opacity="0.33"></circle><circle r="5.5" cx="318" cy="577" opacity="0.33"></circle><circle r="5.5" cx="242" cy="517" opacity="0.33"></circle><circle r="5.5" cx="205" cy="427" opacity="0.33"></circle><circle r="5.5" cx="216" cy="330" opacity="0.32"></circle><circle r="5.5" cx="272" cy="250" opacity="0.32"></circle><circle r="5.5" cx="359" cy="206" opacity="0.32"></circle><circle r="5.5" cx="457" cy="210" opacity="0.32"></circle><circle r="5.5" cx="542" cy="260" opacity="0.32"></circle><circle r="5.5" cx="592" cy="345" opacity="0.32"></circle><circle r="5.5" cx="595" cy="444" opacity="0.31"></circle><circle r="5.5" cx="551" cy="532" opacity="0.31"></circle><circle r="5.5" cx="469" cy="589" opacity="0.31"></circle><circle r="5.5" cx="370" cy="599" opacity="0.31"></circle><circle r="5.5" cx="278" cy="561" opacity="0.31"></circle><circle r="5.5" cx="215" cy="483" opacity="0.30"></circle><circle r="5.5" cx="198" cy="384" opacity="0.30"></circle><circle r="5.5" cx="230" cy="289" opacity="0.30"></circle><circle r="5.5" cx="304" cy="220" opacity="0.30"></circle><circle r="5.5" cx="402" cy="196" opacity="0.30"></circle><circle r="5.5" cx="500" cy="221" opacity="0.30"></circle><circle r="5.5" cx="574" cy="291" opacity="0.29"></circle><circle r="6" cx="606" cy="387" opacity="0.29"></circle><circle r="6" cx="587" cy="488" opacity="0.29"></circle><circle r="6" cx="522" cy="567" opacity="0.29"></circle><circle r="6" cx="427" cy="606" opacity="0.29"></circle><circle r="6" cx="325" cy="594" opacity="0.29"></circle><circle r="6" cx="241" cy="535" opacity="0.28"></circle><circle r="6" cx="195" cy="442" opacity="0.28"></circle><circle r="6" cx="200" cy="339" opacity="0.28"></circle><circle r="6" cx="253" cy="250" opacity="0.28"></circle><circle r="6" cx="343" cy="197" opacity="0.28"></circle><circle r="6" cx="447" cy="194" opacity="0.28"></circle><circle r="6" cx="540" cy="242" opacity="0.27"></circle><circle r="6" cx="599" cy="328" opacity="0.27"></circle><circle r="6" cx="610" cy="433" opacity="0.27"></circle><circle r="6" cx="569" cy="530" opacity="0.27"></circle><circle r="6" cx="486" cy="595" opacity="0.27"></circle><circle r="6" cx="382" cy="613" opacity="0.26"></circle><circle r="6" cx="282" cy="579" opacity="0.26"></circle><circle r="6" cx="210" cy="501" opacity="0.26"></circle><circle r="6" cx="185" cy="397" opacity="0.26"></circle><circle r="6" cx="212" cy="294" opacity="0.26"></circle><circle r="6" cx="285" cy="216" opacity="0.26"></circle><circle r="6" cx="388" cy="183" opacity="0.25"></circle><circle r="6" cx="493" cy="203" opacity="0.25"></circle><circle r="6" cx="576" cy="272" opacity="0.25"></circle><circle r="6" cx="617" cy="372" opacity="0.25"></circle><circle r="6" cx="604" cy="480" opacity="0.25"></circle><circle r="6" cx="541" cy="568" opacity="0.25"></circle><circle r="6" cx="444" cy="616" opacity="0.24"></circle><circle r="6" cx="335" cy="611" opacity="0.24"></circle><circle r="6" cx="241" cy="554" opacity="0.24"></circle><circle r="6" cx="187" cy="459" opacity="0.24"></circle><circle r="6" cx="184" cy="349" opacity="0.24"></circle><circle r="6" cx="234" cy="252" opacity="0.23"></circle><circle r="6" cx="325" cy="190" opacity="0.23"></circle><circle r="6" cx="435" cy="179" opacity="0.23"></circle><circle r="6" cx="537" cy="223" opacity="0.23"></circle><circle r="6.5" cx="606" cy="310" opacity="0.23"></circle><circle r="6.5" cx="624" cy="420" opacity="0.23"></circle><circle r="6.5" cx="588" cy="525" opacity="0.22"></circle><circle r="6.5" cx="505" cy="600" opacity="0.22"></circle><circle r="6.5" cx="396" cy="626" opacity="0.22"></circle><circle r="6.5" cx="288" cy="597" opacity="0.22"></circle><circle r="6.5" cx="206" cy="520" opacity="0.22"></circle><circle r="6.5" cx="172" cy="412" opacity="0.22"></circle><circle r="6.5" cx="194" cy="301" opacity="0.21"></circle><circle r="6.5" cx="266" cy="214" opacity="0.21"></circle><circle r="6.5" cx="372" cy="172" opacity="0.21"></circle><circle r="6.5" cx="484" cy="186" opacity="0.21"></circle><circle r="6.5" cx="577" cy="252" opacity="0.21"></circle><circle r="6.5" cx="627" cy="355" opacity="0.20"></circle><circle r="6.5" cx="621" cy="470" opacity="0.20"></circle><circle r="6.5" cx="561" cy="567" opacity="0.20"></circle><circle r="6.5" cx="461" cy="624" opacity="0.20"></circle><circle r="6.5" cx="346" cy="627" opacity="0.20"></circle><circle r="6.5" cx="243" cy="573" opacity="0.20"></circle><circle r="6.5" cx="179" cy="477" opacity="0.19"></circle><circle r="6.5" cx="169" cy="362" opacity="0.19"></circle><circle r="6.5" cx="215" cy="255" opacity="0.19"></circle><circle r="6.5" cx="307" cy="184" opacity="0.19"></circle><circle r="6.5" cx="422" cy="165" opacity="0.19"></circle><circle r="6.5" cx="532" cy="204" opacity="0.19"></circle><circle r="6.5" cx="610" cy="291" opacity="0.18"></circle><circle r="6.5" cx="637" cy="405" opacity="0.18"></circle><circle r="6.5" cx="606" cy="519" opacity="0.18"></circle><circle r="6.5" cx="524" cy="603" opacity="0.18"></circle><circle r="6.5" cx="412" cy="639" opacity="0.18"></circle><circle r="6.5" cx="296" cy="616" opacity="0.17"></circle><circle r="6.5" cx="205" cy="539" opacity="0.17"></circle><circle r="6.5" cx="161" cy="429" opacity="0.17"></circle><circle r="6.5" cx="176" cy="310" opacity="0.17"></circle><circle r="6.5" cx="246" cy="214" opacity="0.17"></circle><circle r="6.5" cx="354" cy="162" opacity="0.17"></circle><circle r="7" cx="474" cy="169" opacity="0.16"></circle><circle r="7" cx="576" cy="232" opacity="0.16"></circle><circle r="7" cx="635" cy="337" opacity="0.16"></circle><circle r="7" cx="637" cy="458" opacity="0.16"></circle><circle r="7" cx="581" cy="565" opacity="0.16"></circle><circle r="7" cx="480" cy="632" opacity="0.16"></circle><circle r="7" cx="359" cy="642" opacity="0.15"></circle><circle r="7" cx="248" cy="593" opacity="0.15"></circle><circle r="7" cx="173" cy="497" opacity="0.15"></circle><circle r="7" cx="154" cy="376" opacity="0.15"></circle><circle r="7" cx="195" cy="261" opacity="0.15"></circle><circle r="7" cx="287" cy="179" opacity="0.14"></circle><circle r="7" cx="407" cy="152" opacity="0.14"></circle><circle r="7" cx="525" cy="185" opacity="0.14"></circle><circle r="7" cx="613" cy="271" opacity="0.14"></circle><circle r="7" cx="650" cy="389" opacity="0.14"></circle><circle r="7" cx="625" cy="510" opacity="0.14"></circle><circle r="7" cx="545" cy="605" opacity="0.13"></circle><circle r="7" cx="429" cy="650" opacity="0.13"></circle><circle r="7" cx="305" cy="634" opacity="0.13"></circle><circle r="7" cx="205" cy="560" opacity="0.13"></circle><circle r="7" cx="151" cy="447" opacity="0.13"></circle><circle r="7" cx="159" cy="322" opacity="0.13"></circle><circle r="7" cx="226" cy="215" opacity="0.12"></circle><circle r="7" cx="335" cy="154" opacity="0.12"></circle><circle r="7" cx="461" cy="153" opacity="0.12"></circle><circle r="7" cx="573" cy="212" opacity="0.12"></circle><circle r="7" cx="642" cy="318" opacity="0.12"></circle><circle r="7" cx="653" cy="444" opacity="0.11"></circle><circle r="7" cx="601" cy="560" opacity="0.11"></circle><circle r="7" cx="500" cy="637" opacity="0.11"></circle><circle r="7" cx="374" cy="657" opacity="0.11"></circle><circle r="7" cx="254" cy="613" opacity="0.11"></circle><circle r="7" cx="169" cy="517" opacity="0.11"></circle><circle r="7" cx="141" cy="392" opacity="0.10"></circle><circle r="7" cx="176" cy="268" opacity="0.10"></circle><circle r="7" cx="266" cy="177" opacity="0.10"></circle></g></svg>